<svg width="97" height="97" viewBox="0 0 97 97" fill="none" xmlns="http://www.w3.org/2000/svg">
<path opacity="0.4" d="M91.2875 31.5191C91.2875 33.9716 89.9705 36.1968 87.8813 37.3323L79.9787 41.6014L73.2571 45.1895L59.3142 52.7286C57.8154 53.5461 56.1804 53.9549 54.5 53.9549C52.8196 53.9549 51.1846 53.5461 49.6858 52.7286L21.1187 37.3323C19.0296 36.1968 17.7125 33.9716 17.7125 31.5191C17.7125 29.0666 19.0296 26.841 21.1187 25.7056L30.0658 20.8914L37.1963 17.0311L49.6858 10.3096C52.6833 8.67456 56.3167 8.67456 59.3142 10.3096L87.8813 25.7056C89.9705 26.841 91.2875 29.0666 91.2875 31.5191Z" fill="#FF7011"/>
<path opacity="0.4" d="M44.9625 58.0879L18.3937 44.7809C16.3499 43.7363 13.9883 43.8725 12.0354 45.0534C10.0825 46.2342 8.94709 48.3235 8.94709 50.5943V75.7096C8.94709 80.0696 11.3541 83.9754 15.2599 85.9284L41.8287 99.1902C42.737 99.6444 43.7363 99.8713 44.7354 99.8713C45.9163 99.8713 47.0971 99.5535 48.1417 98.8723C50.0946 97.6914 51.23 95.6021 51.23 93.3313V68.216C51.2754 63.9469 48.8683 60.0408 44.9625 58.0879Z" fill="#FF7011"/>
<path opacity="0.4" d="M100.053 50.6398V75.755C100.053 80.0696 97.6459 83.9754 93.7401 85.9283L67.1713 99.2354C66.263 99.6895 65.2637 99.9167 64.2646 99.9167C63.0837 99.9167 61.903 99.599 60.813 98.9177C58.9055 97.7369 57.7245 95.6476 57.7245 93.3767V68.3066C57.7245 63.9466 60.1317 60.0408 64.0375 58.0879L73.8021 53.2283L80.6146 49.822L90.6063 44.8263C92.6501 43.7817 95.0117 43.8725 96.9646 45.0988C98.8721 46.2796 100.053 48.3689 100.053 50.6398Z" fill="#FF7011"/>
<path d="M79.9787 41.6015L73.2571 45.1896L30.0658 20.8916L37.1963 17.0312L78.8887 40.5571C79.3429 40.8296 79.7062 41.1928 79.9787 41.6015Z" fill="#FF7011"/>
<path d="M80.6146 49.822V60.1316C80.6146 61.9937 79.0704 63.5379 77.2083 63.5379C75.3463 63.5379 73.8021 61.9937 73.8021 60.1316V53.2282L80.6146 49.822Z" fill="#FF7011"/>
</svg>
