<svg width="18" height="22" viewBox="0 0 18 22" fill="none" xmlns="http://www.w3.org/2000/svg">
<path fill-rule="evenodd" clip-rule="evenodd" d="M9 1.57507C4.85786 1.57507 1.5 4.93294 1.5 9.07507C1.5 9.80305 1.76191 10.7085 2.24654 11.7367C2.72599 12.7539 3.39557 13.8336 4.14597 14.8942C5.64653 17.0149 7.42555 18.9964 8.52027 20.1558C8.78535 20.4366 9.21465 20.4366 9.47973 20.1558C10.5744 18.9964 12.3535 17.0149 13.854 14.8942C14.6044 13.8336 15.274 12.7539 15.7535 11.7367C16.2381 10.7085 16.5 9.80305 16.5 9.07507C16.5 4.93294 13.1421 1.57507 9 1.57507ZM0 9.07507C0 4.10451 4.02944 0.0750732 9 0.0750732C13.9706 0.0750732 18 4.10451 18 9.07507C18 10.1233 17.635 11.2629 17.1103 12.3762C16.5804 13.5005 15.8581 14.6588 15.0785 15.7606C13.5191 17.9645 11.6856 20.0045 10.5704 21.1856C9.71334 22.0933 8.28666 22.0933 7.42962 21.1856C6.31437 20.0045 4.48092 17.9645 2.9215 15.7606C2.14191 14.6588 1.41963 13.5005 0.889703 12.3762C0.364962 11.2629 0 10.1233 0 9.07507ZM8.99999 5.70007C7.51573 5.70007 6.31249 6.90331 6.31249 8.38757C6.31249 9.87184 7.51573 11.0751 8.99999 11.0751C10.4843 11.0751 11.6875 9.87184 11.6875 8.38757C11.6875 6.90331 10.4843 5.70007 8.99999 5.70007ZM4.81249 8.38757C4.81249 6.07488 6.6873 4.20007 8.99999 4.20007C11.3127 4.20007 13.1875 6.07488 13.1875 8.38757C13.1875 10.7003 11.3127 12.5751 8.99999 12.5751C6.6873 12.5751 4.81249 10.7003 4.81249 8.38757Z" fill="#7B7B7B"/>
</svg>
