<svg width="22" height="22" viewBox="0 0 22 22" fill="none" xmlns="http://www.w3.org/2000/svg">
<path d="M19.71 5.38829L13.47 1.02245C11.7692 -0.169214 9.15834 -0.104214 7.52251 1.16329L2.095 5.39912C1.01167 6.24412 0.155838 7.97745 0.155838 9.34245V16.8175C0.155838 19.58 2.39834 21.8333 5.16084 21.8333H16.8392C19.6017 21.8333 21.8442 19.5908 21.8442 16.8283V9.48329C21.8442 8.02079 20.9017 6.22245 19.71 5.38829ZM11.8125 17.5C11.8125 17.9441 11.4442 18.3125 11 18.3125C10.5558 18.3125 10.1875 17.9441 10.1875 17.5V14.25C10.1875 13.8058 10.5558 13.4375 11 13.4375C11.4442 13.4375 11.8125 13.8058 11.8125 14.25V17.5Z" fill="#FF7011"/>
</svg>
