<svg width="126" height="15" viewBox="0 0 126 15" fill="none" xmlns="http://www.w3.org/2000/svg">
<path d="M13.4121 7.55762C13.4121 8.54785 13.292 9.4502 13.0518 10.2646C12.8174 11.0732 12.4482 11.7705 11.9443 12.3564C11.4404 12.9424 10.793 13.3936 10.002 13.71C9.21094 14.0205 8.26465 14.1758 7.16309 14.1758C6.08496 14.1758 5.15039 14.0205 4.35938 13.71C3.57422 13.3936 2.92676 12.9453 2.41699 12.3652C1.90723 11.7793 1.5293 11.0791 1.2832 10.2646C1.03711 9.4502 0.914062 8.54199 0.914062 7.54004C0.914062 6.2041 1.13379 5.04395 1.57324 4.05957C2.01855 3.06934 2.7041 2.30469 3.62988 1.76562C4.55566 1.2207 5.73926 0.948242 7.18066 0.948242C8.64551 0.948242 9.83496 1.2207 10.749 1.76562C11.6689 2.31055 12.3428 3.07812 12.7705 4.06836C13.1982 5.05859 13.4121 6.22168 13.4121 7.55762ZM4.57031 7.55762C4.57031 8.33105 4.6582 8.99609 4.83398 9.55273C5.00977 10.1094 5.28809 10.5371 5.66895 10.8359C6.0498 11.1348 6.54785 11.2842 7.16309 11.2842C7.80176 11.2842 8.30859 11.1348 8.68359 10.8359C9.06445 10.5371 9.33691 10.1094 9.50098 9.55273C9.6709 8.99609 9.75586 8.33105 9.75586 7.55762C9.75586 6.39746 9.5625 5.48047 9.17578 4.80664C8.78906 4.13281 8.12402 3.7959 7.18066 3.7959C6.55371 3.7959 6.04688 3.94824 5.66016 4.25293C5.2793 4.55762 5.00098 4.99121 4.8252 5.55371C4.65527 6.11621 4.57031 6.78418 4.57031 7.55762ZM21.0224 1.15039C22.1884 1.15039 23.1581 1.29395 23.9316 1.58105C24.705 1.8623 25.2851 2.28418 25.6718 2.84668C26.0644 3.40918 26.2607 4.10938 26.2607 4.94727C26.2607 5.46875 26.1728 5.94336 25.997 6.37109C25.8212 6.79883 25.5693 7.18262 25.2411 7.52246C24.9189 7.85645 24.5321 8.14941 24.081 8.40137L27.8251 14H23.8876L21.163 9.32422H20.2841V14H16.8124V1.15039H21.0224ZM20.9696 3.77832H20.2841V6.71387H20.9345C21.4677 6.71387 21.9042 6.59668 22.2441 6.3623C22.5839 6.12793 22.7538 5.70898 22.7538 5.10547C22.7538 4.68945 22.6132 4.36426 22.332 4.12988C22.0507 3.89551 21.5966 3.77832 20.9696 3.77832ZM39.2323 14H29.2215V11.8555L34.785 3.9541H29.3534V1.15039H39.0916V3.28613L33.5282 11.1963H39.2323V14ZM53.0828 1.15039V8.88477C53.0828 9.96289 52.8777 10.9004 52.4675 11.6973C52.0574 12.4883 51.4422 13.1006 50.6218 13.5342C49.8015 13.9619 48.7732 14.1758 47.5369 14.1758C45.7673 14.1758 44.4168 13.7217 43.4851 12.8135C42.5535 11.9053 42.0877 10.6221 42.0877 8.96387V1.15039H45.5769V8.69141C45.5769 9.59961 45.7468 10.2588 46.0867 10.6689C46.4265 11.0791 46.9275 11.2842 47.5896 11.2842C48.0642 11.2842 48.4509 11.1963 48.7498 11.0205C49.0486 10.8389 49.2654 10.5547 49.4002 10.168C49.5408 9.78125 49.6111 9.2832 49.6111 8.67383V1.15039H53.0828ZM62.0202 6.47656H67.5661V13.4023C66.904 13.6309 66.1452 13.8184 65.2897 13.9648C64.4343 14.1055 63.5378 14.1758 62.6003 14.1758C61.3639 14.1758 60.28 13.9355 59.3483 13.4551C58.4167 12.9746 57.6901 12.2451 57.1686 11.2666C56.6471 10.2822 56.3864 9.04004 56.3864 7.54004C56.3864 6.19238 56.6442 5.0293 57.1598 4.05078C57.6755 3.06641 58.4343 2.30762 59.4362 1.77441C60.444 1.23535 61.6774 0.96582 63.1364 0.96582C63.9391 0.96582 64.7009 1.04199 65.4216 1.19434C66.1423 1.34668 66.7692 1.54004 67.3024 1.77441L66.2038 4.49902C65.7409 4.27051 65.2604 4.10059 64.7624 3.98926C64.2643 3.87207 63.7282 3.81348 63.154 3.81348C62.3864 3.81348 61.7682 3.98633 61.2995 4.33203C60.8366 4.67773 60.4997 5.14062 60.2887 5.7207C60.0778 6.29492 59.9723 6.93066 59.9723 7.62793C59.9723 8.4248 60.0837 9.09863 60.3063 9.64941C60.5348 10.1943 60.8659 10.6104 61.2995 10.8975C61.7389 11.1787 62.2692 11.3193 62.8903 11.3193C63.0954 11.3193 63.3444 11.3047 63.6374 11.2754C63.9362 11.2461 64.1618 11.2109 64.3141 11.1699V9.15723H62.0202V6.47656ZM75.4752 1.15039C76.6412 1.15039 77.6109 1.29395 78.3844 1.58105C79.1578 1.8623 79.7379 2.28418 80.1246 2.84668C80.5172 3.40918 80.7135 4.10938 80.7135 4.94727C80.7135 5.46875 80.6256 5.94336 80.4498 6.37109C80.274 6.79883 80.0221 7.18262 79.6939 7.52246C79.3717 7.85645 78.985 8.14941 78.5338 8.40137L82.2779 14H78.3404L75.6158 9.32422H74.7369V14H71.2652V1.15039H75.4752ZM75.4225 3.77832H74.7369V6.71387H75.3873C75.9205 6.71387 76.357 6.59668 76.6969 6.3623C77.0367 6.12793 77.2066 5.70898 77.2066 5.10547C77.2066 4.68945 77.066 4.36426 76.7848 4.12988C76.5035 3.89551 76.0494 3.77832 75.4225 3.77832ZM92.4107 14L91.7779 11.5918H87.6031L86.9527 14H83.1382L87.3306 1.09766H91.9624L96.2075 14H92.4107ZM91.0572 8.74414L90.5034 6.63477C90.4448 6.40625 90.3599 6.08105 90.2486 5.65918C90.1372 5.23145 90.0259 4.79199 89.9146 4.34082C89.8091 3.88379 89.7271 3.50879 89.6685 3.21582C89.6157 3.50879 89.5396 3.87207 89.44 4.30566C89.3462 4.7334 89.2466 5.1582 89.1411 5.58008C89.0415 6.00195 88.9536 6.35352 88.8775 6.63477L88.3238 8.74414H91.0572ZM110.919 14H106.367L101.673 4.94727H101.594C101.623 5.22266 101.65 5.55371 101.673 5.94043C101.697 6.32715 101.717 6.72266 101.735 7.12695C101.752 7.52539 101.761 7.88574 101.761 8.20801V14H98.685V1.15039H103.22L107.896 10.0801H107.949C107.931 9.79883 107.914 9.47363 107.896 9.10449C107.878 8.72949 107.861 8.35156 107.843 7.9707C107.831 7.58984 107.826 7.25293 107.826 6.95996V1.15039H110.919V14ZM125.684 7.30273C125.684 8.79688 125.406 10.0391 124.849 11.0293C124.292 12.0195 123.507 12.7637 122.494 13.2617C121.486 13.7539 120.299 14 118.934 14H114.777V1.15039H119.224C120.607 1.15039 121.779 1.3877 122.74 1.8623C123.701 2.33691 124.43 3.03125 124.928 3.94531C125.432 4.85938 125.684 5.97852 125.684 7.30273ZM122.08 7.42578C122.08 6.64648 121.975 6.00195 121.764 5.49219C121.559 4.97656 121.248 4.59277 120.832 4.34082C120.416 4.08301 119.892 3.9541 119.259 3.9541H118.248V11.1523H119.022C120.077 11.1523 120.85 10.8477 121.342 10.2383C121.834 9.62305 122.08 8.68555 122.08 7.42578Z" fill="#FF7011"/>
</svg>
